<?xml version="1.0" encoding="UTF-8" standalone="no"?>
<svg
   id="Camada_1"
   version="1.1"
   viewBox="0 0 1536 1024"
   sodipodi:docname="logo-nova.svg"
   inkscape:version="1.4.3 (0d15f75042, 2025-12-25)"
   xmlns:inkscape="http://www.inkscape.org/namespaces/inkscape"
   xmlns:sodipodi="http://sodipodi.sourceforge.net/DTD/sodipodi-0.dtd"
   xmlns="http://www.w3.org/2000/svg"
   xmlns:svg="http://www.w3.org/2000/svg">
  <sodipodi:namedview
     id="namedview158"
     pagecolor="#ffffff"
     bordercolor="#000000"
     borderopacity="0.25"
     inkscape:showpageshadow="2"
     inkscape:pageopacity="0.0"
     inkscape:pagecheckerboard="0"
     inkscape:deskcolor="#d1d1d1"
     inkscape:zoom="0.40478516"
     inkscape:cx="-106.22919"
     inkscape:cy="559.55609"
     inkscape:window-width="1920"
     inkscape:window-height="1044"
     inkscape:window-x="0"
     inkscape:window-y="0"
     inkscape:window-maximized="1"
     inkscape:current-layer="Camada_1" />
  <!-- Generator: Adobe Illustrator 29.8.5, SVG Export Plug-In . SVG Version: 2.1.1 Build 2)  -->
  <defs
     id="defs1">
    <style
       id="style1">
      .st0 {
        fill: #3969aa;
      }

      .st1 {
        fill: #3669ab;
      }

      .st2 {
        fill: #9eb6d1;
      }

      .st3 {
        fill: #255ca9;
      }

      .st4 {
        fill: #3b6dae;
      }

      .st5 {
        fill: #4673b3;
      }

      .st6 {
        fill: #166aab;
      }

      .st7 {
        fill: #1e75b2;
      }

      .st8 {
        fill: #4177b6;
      }

      .st9 {
        fill: #f3fafa;
      }

      .st10 {
        fill: #f8fafb;
      }

      .st11 {
        fill: #0d3f7a;
      }

      .st12 {
        fill: #3f70ae;
      }

      .st13 {
        fill: #0d5195;
      }

      .st14 {
        fill: #0a274e;
      }

      .st15 {
        fill: #073669;
      }

      .st16 {
        fill: #5582ce;
      }

      .st17 {
        fill: #08528f;
      }

      .st18 {
        fill: #1e71b3;
      }

      .st19 {
        fill: #f2f7f9;
      }

      .st20 {
        fill: #093465;
      }

      .st21 {
        fill: #09244c;
      }

      .st22 {
        fill: #f8fafa;
      }

      .st23 {
        fill: #3f6fad;
      }

      .st24 {
        fill: #fbfcfb;
      }

      .st25 {
        fill: #fcfcfc;
      }

      .st26 {
        fill: #286087;
      }

      .st27 {
        fill: #41648b;
      }

      .st28 {
        fill: #0c386b;
      }

      .st29 {
        fill: #146bb3;
      }

      .st30 {
        fill: #396cab;
      }

      .st31 {
        fill: #2d7ec1;
      }

      .st32 {
        fill: #1c6faf;
      }

      .st33 {
        fill: #8abce1;
      }

      .st34 {
        fill: #f2f6f8;
      }

      .st35 {
        fill: #3a6bac;
      }

      .st36 {
        fill: #0e4f93;
      }

      .st37 {
        fill: #1264aa;
      }

      .st38 {
        fill: #4270a6;
      }

      .st39 {
        fill: #063568;
      }

      .st40 {
        fill: #f7fafa;
      }

      .st41 {
        fill: #a0c3e2;
      }

      .st42 {
        fill: #1c4c86;
      }

      .st43 {
        fill: #1665a4;
      }

      .st44 {
        fill: #3e6ba4;
      }

      .st45 {
        fill: #3e68a2;
      }

      .st46 {
        fill: #f9fcfb;
      }

      .st47 {
        fill: #4c79b4;
      }

      .st48 {
        fill: #2d5f83;
      }

      .st49 {
        fill: #3b69a7;
      }

      .st50 {
        fill: #d7e7f7;
      }

      .st51 {
        fill: #2d5f88;
      }

      .st52 {
        fill: #93a1b5;
      }

      .st53 {
        fill: #2d86c6;
      }

      .st54 {
        fill: #1163a7;
      }

      .st55 {
        fill: #4a6fa6;
      }

      .st56 {
        fill: #083466;
      }

      .st57 {
        fill: #083669;
      }

      .st58 {
        fill: #0b294f;
      }

      .st59 {
        fill: #ddedf4;
      }

      .st60 {
        fill: #2b5f9b;
      }

      .st61 {
        fill: #146aaa;
      }

      .st62 {
        fill: #3a6ba0;
      }

      .st63 {
        fill: #4975b2;
      }

      .st64 {
        fill: #073569;
      }

      .st65 {
        fill: #fafbfa;
      }

      .st66 {
        fill: #f9fcfa;
      }

      .st67 {
        fill: #1264a8;
      }

      .st68 {
        fill: #083467;
      }

      .st69 {
        fill: #3a63a0;
      }

      .st70 {
        fill: #f0f7f8;
      }

      .st71 {
        fill: #fbfbfb;
      }

      .st72 {
        fill: #164e97;
      }

      .st73 {
        fill: #3e6daa;
      }

      .st74 {
        fill: #4b71a6;
      }

      .st75 {
        fill: #466ca3;
      }

      .st76 {
        fill: #166bad;
      }

      .st77 {
        fill: #ebf6f7;
      }

      .st78 {
        fill: #162d46;
      }

      .st79 {
        fill: #389ddb;
      }

      .st80 {
        fill: #f3f8f9;
      }

      .st81 {
        fill: #2f5c94;
      }

      .st82 {
        fill: #7eb7df;
      }

      .st83 {
        fill: #f8fbfa;
      }

      .st84 {
        fill: #bad5ea;
      }

      .st85 {
        fill: #466ea3;
      }

      .st86 {
        fill: #e6f2f9;
      }

      .st87 {
        fill: #3b68a0;
      }

      .st88 {
        fill: #1c6fae;
      }

      .st89 {
        fill: #f0f7fc;
      }

      .st90 {
        fill: #0d3d72;
      }

      .st91 {
        fill: #f8fbfb;
      }

      .st92 {
        fill: #3467a6;
      }

      .st93 {
        fill: #517aaf;
      }

      .st94 {
        fill: #2c7ec1;
      }

      .st95 {
        fill: #1569ab;
      }

      .st96 {
        fill: #396da8;
      }

      .st97 {
        fill: #3869a9;
      }

      .st98 {
        fill: #3f6ea8;
      }

      .st99 {
        fill: #c7ddee;
      }

      .st100 {
        fill: #376baa;
      }

      .st101 {
        fill: #e5f3fb;
      }

      .st102 {
        fill: #4873a9;
      }

      .st103 {
        fill: #146bac;
      }

      .st104 {
        fill: #3f6da8;
      }

      .st105 {
        fill: #4677b1;
      }

      .st106 {
        fill: #376cad;
      }

      .st107 {
        fill: #0d2549;
      }

      .st108 {
        fill: #366297;
      }

      .st109 {
        fill: #176dae;
      }

      .st110 {
        fill: #022a58;
      }

      .st111 {
        fill: #174a89;
      }

      .st112 {
        fill: #146aad;
      }

      .st113 {
        fill: #f6f9fa;
      }

      .st114 {
        fill: #3f72ac;
      }

      .st115 {
        fill: #f1f7f8;
      }

      .st116 {
        fill: #156baf;
      }

      .st117 {
        fill: #d6e7f7;
      }

      .st118 {
        fill: #1a6cab;
      }

      .st119 {
        fill: #37609d;
      }

      .st120 {
        fill: #3b6eb1;
      }

      .st121 {
        fill: #a3b0c0;
      }

      .st122 {
        fill: #0b3567;
      }

      .st123 {
        fill: #416ea5;
      }

      .st124 {
        fill: #3c69a7;
      }

      .st125 {
        fill: #4674ad;
      }

      .st126 {
        fill: #285e88;
      }

      .st127 {
        fill: #426b9e;
      }

      .st128 {
        fill: #496ca5;
      }

      .st129 {
        fill: #426ba6;
      }

      .st130 {
        fill: #102a52;
      }

      .st131 {
        fill: #105b94;
      }

      .st132 {
        fill: #e1edf6;
      }

      .st133 {
        fill: #1166ad;
      }

      .st134 {
        fill: #0a3567;
      }

      .st135 {
        fill: #146aab;
      }

      .st136 {
        fill: #edf3f7;
      }

      .st137 {
        fill: #1468ad;
      }

      .st138 {
        fill: #186cac;
      }

      .st139 {
        fill: #326aaa;
      }

      .st140 {
        fill: #376cb1;
      }

      .st141 {
        fill: #4071ae;
      }

      .st142 {
        fill: #073468;
      }

      .st143 {
        fill: #42a4e1;
      }

      .st144 {
        fill: #345d93;
      }

      .st145 {
        fill: #fdfdfd;
      }

      .st146 {
        fill: #33547d;
      }

      .st147 {
        fill: #338ccb;
      }

      .st148 {
        fill: #035a9e;
      }

      .st149 {
        fill: #3e6faa;
      }

      .st150 {
        fill: #163250;
      }
    </style>
  </defs>
  <g
     id="g158"
     transform="matrix(1.9670469,0,0,1.9670469,-628.28725,-441.57143)">
    <path
       class="st67"
       d="m 898.51162,378.53131 c 2.37,4.57 3.37,8.73 3,12.5 1.83,12.01 0.93,27.28 0,40 0.77,1.8 0.74,3.67 0,5.5 -1.05,-0.05 -2.09,-0.14 -3.1,-0.38 -4.56,-1.06 -30.44,-19.11 -34.75,-23.33 l -1.15,-3.29 c -1.25,-0.23 -2.49,-0.49 -3.69,-0.89 -1.2,-0.4 -2.34,-0.79 -3.34,-1.42 -9.08,-5.7 -18.15,-11.57 -27,-17.63 -30.89,-21.17 -61.78,-42.37 -92.51,-63.78 -3.07,-2.14 -6,-4.5 -8.91,-6.88 -2.91,-2.38 -5.74,-4.88 -8.55,-7.4 l 0.2,-2.52 c 13.16,-11 32.02,-25.09 49.8,-20.48 38.6,25.83 78.66,52.15 116.32,79.18 4.07,2.92 10.83,7.01 13.68,10.82 z"
       id="path1" />
    <path
       class="st68"
       d="m 768.51162,288.53131 c -6.01,1.88 -12.51,0.66 -18.72,2.78 -8.77,2.99 -22.84,14.88 -31.28,20.22 -34.33,25.19 -70.47,47.88 -108,68 -14.41,12.75 -31.22,23.63 -49,31 -2.37,1.47 -10.29,7.13 -11.96,7.57 -1.1,0.28 -2.04,-0.73 -2.04,-1.07 v -24 c 0,-5.71 5.24,-14.64 10.07,-17.93 l 163.53,-108.47 c 4.75,-1.99 9.3,-2.18 14.13,-0.32 8.26,3.18 24.89,16.61 33.28,22.22 z"
       id="path2" />
    <path
       class="st79"
       d="m 611.51162,437.53131 c 1.13,1.6 1.16,3.74 0.08,6.41 -1.24,35.62 -1.49,71.27 -0.75,106.95 l -1.33,2.64 c 2.73,0.4 2.45,0.98 0,2 -24.37,0.55 -44.78,-16.85 -47.04,-41.46 -2.74,-29.87 0.38,-67.19 0.06,-98.06 -0.02,-1.69 0.64,-4.45 -1.02,-5.49 16.41,-10.17 32.65,-20.74 49,-31 l 2.02,0.88 c 0.37,17.86 0.64,35.73 0.81,53.61 l -1.83,3.51 z"
       id="path3" />
    <path
       class="st122"
       d="m 613.51162,435.53131 c 2.3,-0.62 2.72,0.85 3.06,2.74 25.77,24.54 51.52,50.12 76.18,74.81 l -0.24,4.45 c 0.66,5.91 0.18,12.1 -1.42,18.56 0.19,6.66 -0.67,12.81 -2.58,18.44 -0.18,0 -1.59,1.06 -3.38,1.07 -24.87,0.08 -49.76,-0.21 -74.62,-0.07 -0.41,-1.33 0.73,-1.41 1.96,-1.45 18.55,-0.56 13.45,-0.47 1.61,-0.09 -2.36,0.71 -3.88,0.55 -4.57,-0.46 0,-34.06 -2.84,-75.42 -0.04,-108.54 0.22,-2.63 0.72,-5.17 2.04,-7.46 0.31,-2.54 0.97,-3.21 2,-2 z"
       id="path4" />
    <path
       class="st94"
       d="m 862.51162,409.53131 c 1.58,1.08 2.44,1.81 4.31,3.08 11.58,7.91 22.77,16.51 34.69,23.92 0.68,0.21 0.64,0.55 0,1 0.65,27.91 0.99,55.24 1,82 -1.11,16.28 -11.79,34.52 -29.46,36.04 -26.66,2.29 -60.09,-0.04 -87.54,-0.04 -0.87,-0.28 -0.86,-0.62 0,-1 l 0.92,-2 75.08,-0.22 0.04,-74.22 c -1.32,-3.73 -1.34,-6.59 -0.05,-8.56 l -1.92,-5.11 c 0.3,-17.91 0.6,-35.82 0.9,-53.72 l 2.02,-1.17 z"
       id="path5" />
    <path
       class="st37"
       d="m 779.51162,646.53131 c -9.47,8.51 -23.77,24.51 -33.66,30.84 -8.08,5.17 -17.34,4.03 -24.35,-2.33 -26.42,-25.45 -54.15,-49.5 -80.99,-74.51 -1.44,-1.97 -0.76,-2.64 1.43,-3.58 2.35,-1.01 42.9,12.14 49.23,14.22 29.75,9.8 59.47,21.02 88.25,32.58 0.44,0.89 0.45,1.82 0.09,2.78 z"
       id="path6" />
    <path
       class="st28"
       d="m 766.51162,539.53131 c 2.86,4.33 1.88,13.7 -3,16 -1.32,4.21 -3.02,8.07 -5,12 l 1.23,1.92 c -0.32,1.59 -16.03,25.84 -17.58,27.19 -3.84,3.34 -5.69,2.34 -9.65,-0.11 l -2.21,-0.75 c -2.42,-4.18 -5.26,-8.1 -8.5,-11.76 l 0.71,-2.49 c -3.28,0.31 -5.21,-4.8 -3,-7 -4.11,0.18 -6.23,-4.81 -5,-8 -1.73,-3.5 -4.88,-8.59 -6,-12 -5.58,-3.17 -4.18,-16.22 -2.62,-22.19 1.56,-5.97 6.13,-16.83 12.62,-15.81 5.44,-8.44 18.26,-8.5 26.97,-5.81 12.14,3.76 24.29,15.84 21.03,28.81 z"
       id="path7" />
    <path
       class="st99"
       d="m 719.51162,574.53131 c 0.94,1.61 1.89,5.2 3,7 l 0.71,1.99 c -9.43,7.04 -18.3,14.39 -26.59,22.05 12.5,5.45 25.67,7.91 38.88,7.97 l 1.58,-1.63 c 21.69,-5.62 41.35,-15.81 58.32,-30.48 l 4.1,-0.89 c 6.16,-3.1 7.49,-1.1 4,6 0.76,1.64 0.13,3.03 -1.89,4.15 l 33.82,1.79 1.07,2.06 c -3.28,3.02 -6.75,6.02 -10,9 l -24.25,-2.98 c -6.9,-1.32 -13.1,-0.44 -18.62,2.62 -13,8.7 -25.86,14.95 -41.16,18.09 l 45.52,15 0.51,2.27 c -2.94,2.66 -6.12,5.41 -9,8 -1.39,-1.74 -3.52,-2.27 -5.49,-3.02 -37.79,-14.38 -92.47,-35.5 -130.98,-44.02 -1.86,-0.41 -2.85,-2.29 -2.54,1.04 -0.71,-0.66 -1.33,-1.37 -2,-2 -1.63,-4.7 8.52,-8.54 12.48,-8.86 8.93,2.35 17.72,5.23 26.37,8.64 l 11.14,-0.78 c 0.57,-4.03 3.42,-4.65 7,-5 -1.39,-1.38 -0.76,-1.98 1,-1 5.85,-6.62 12.45,-13.38 20.37,-17.95 l 2.63,0.95 z"
       id="path8" />
    <path
       class="st132"
       d="m 745.51162,471.53131 c 2.33,-1.51 8.08,2.48 9,5 l -0.58,3.3 c -13.26,10.91 -24.95,23.23 -35.42,36.7 -11.59,8.03 -14.16,25.3 -10,38 -4.44,1.7 -9.82,1.03 -14.55,1.05 -2.24,0 -4.53,-1.05 -5.45,-1.05 -0.55,-12.46 0.8,-24.97 4,-37 -1.32,-6.83 2.35,-13.85 5.57,-19.92 9.6,-18.1 26.06,-34.18 47.43,-26.08 z"
       id="path12" />
    <path
       class="st137"
       d="m 710.51162,568.53131 -2.44,2.43 c -7.73,0.35 -15.27,0.81 -22.63,1.36 5.47,2.02 7.81,7 7.01,14.94 0.97,-2.84 5.05,-9.79 8.25,-5.84 2.18,2.7 -1.13,8.45 -4.19,10.11 -0.34,0.25 -0.61,0.72 -1,1 -3.55,0.47 -5.88,2.14 -7,5 -4.27,2.28 -4.48,3.65 -10.41,2.92 -7.31,-0.9 -20.93,-8.77 -27.09,-8.79 -3.38,0 -10.51,3.93 -12.5,6.87 -4.37,-4.08 -27.75,-24.71 -28.57,-27.96 -0.32,-1.29 0.27,-1.47 1.21,-1.89 l 99.36,-0.14 z"
       id="path14" />
    <path
       class="st147"
       d="m 788.51162,638.53131 -48.6,-15.9 c -1.63,0.48 -1.91,-1.61 -1.41,-2.09 0.86,-0.82 19.08,-5.33 22.7,-6.82 6.97,-2.86 23.08,-14.38 27.87,-15.13 8.51,-1.33 25.28,1.19 34.13,2.8 1.86,0.34 3.89,-0.84 3.31,2.14 -12.64,11.6 -25.21,23.47 -38,35 z"
       id="path15" />
    <path
       class="st133"
       d="m 809.51162,568.53131 c 2.48,3.67 -5.67,12.09 -10,12 -18.1,15.89 -40.15,29.09 -64,33 -3.59,1.21 -8.09,-0.62 -3.18,-3 5.21,-7.18 4.98,-10.58 -0.7,-10.2 -2.62,-1.84 -2.42,-4.86 0.87,-3.81 1.77,0.57 3.35,1.09 5.28,0.82 4.6,-0.64 13.07,-20 17.62,-23.64 0.55,-2.32 2.08,-4.15 3.1,-6.18 1.04,1.66 3.8,1 5.49,1.02 15.16,0.19 30.36,-0.02 45.51,-0.02 z"
       id="path17" />
    <path
       class="st53"
       d="m 823.51162,568.53131 c 4.88,0.02 34.35,-0.81 35.9,0.1 0.34,0.2 0.71,2.34 0.61,3.03 -0.74,4.82 -18.84,18.57 -23.5,22.87 l -37.99,-2.01 c -1.46,-1.3 4.14,-5.23 4.99,-5.99 3.5,-7.28 12.57,-14.35 20,-18 z"
       id="path27" />
    <path
       class="st82"
       d="m 766.51162,539.53131 c -0.51,-4.48 0.25,-7.32 2.3,-8.5 0.27,-14.35 13.65,-14.67 12.71,-1.01 -0.01,0.18 -0.71,-3.43 0.99,-2.48 3.46,3.73 4.26,8.69 2.41,14.87 l 0.59,12.13 v 1 h -22 c 1.68,-5.35 3.35,-10.27 3,-16 z"
       id="path30" />
    <path
       class="st54"
       d="m 714.51162,566.53131 c 1.8,3.63 3.36,5.21 5,8 -7.79,3.39 -13.8,10.98 -20.5,16.05 -0.93,0.7 -2.16,0.7 -2.5,0.95 2.85,-2.21 0.55,-6.58 4,-7.49 -4.91,-5.88 -4.42,5.89 -8.51,5.44 -3.27,-0.36 -0.68,-10.32 -3.46,-13.51 -1.5,-1.72 -6.28,-0.69 -7.03,-1.44 -1.93,-1.91 4.15,-2.21 2,-3.99 -0.91,-0.75 -7.28,1.37 -7.99,-1 11.59,-0.57 23.72,1.18 34.99,-1.01 2.27,-0.44 4.65,1.31 4,-2 z"
       id="path31" />
    <path
       class="st84"
       d="m 823.51162,568.53131 c -6.05,6.73 -13.29,12.01 -20,18 -3.02,-3.88 1.11,-4.22 1,-4.49 -0.74,-1.87 -3.47,-0.73 -5,-1.51 3.14,-2.76 8.08,-8.28 10,-12 4.66,0 9.34,-0.02 14,0 z"
       id="path52" />
    <path
       class="st110"
       d="m 609.51162,553.53131 h 77.01 c 0.07,-2.48 -0.11,-5.01 0,-7.51 0.05,-1.22 -0.76,-3.72 0.99,-3.48 l 0.02,12 c -24.52,0.31 -49.09,-0.4 -73.62,-0.08 -1.86,0.02 -3.2,1.07 -3.38,1.07 -0.33,0 -0.67,0 -1,0 v -2 z"
       id="path72" />
    <path
       class="st103"
       d="m 902.51162,519.53131 c -1.66,-1.04 -1,-3.79 -1.02,-5.49 -0.27,-25.5 0.17,-51.03 0.02,-76.51 0.28,-0.87 0.62,-0.86 1,0 0.12,26.19 1.76,56.27 0,82 z"
       id="path78" />
    <path
       class="st17"
       d="m 902.51162,437.53131 h -1 c 0,-0.33 0,-0.67 0,-1 -0.01,-1.85 0,-3.65 0,-5.5 v -40 c 0,-2.13 -2.4,-12.15 -5.99,-10.51 l 2.99,-1.99 c 1.12,1.49 3.79,6.63 4.05,8.45 1.88,13.5 -0.11,35.92 -0.05,50.55 z"
       id="path87" />
    <path
       class="st145"
       d="m 718.51162,311.53131 c 37.24,25.15 74,51.03 111.09,76.41 10.81,7.4 22.11,14.22 32.91,21.59 l -1,60 c -2.71,0.65 -3.76,-1.67 -3,-4 l -2.8,0.07 c -28.73,-20.01 -68.75,-6.12 -96.12,10.82 l -4.08,0.11 c -0.1,0.9 -0.45,0.85 -1,0 -2.88,-0.32 -6.94,-3.1 -9,-5 l -4.32,-1.4 c -24.89,-28.36 -82.93,-57.29 -119.14,-38.48 -2.82,2.53 -5.67,3.82 -8.55,3.87 -0.75,0.72 -1.26,0.72 -2,2 l -1,-58 c 36.02,-22.61 72.08,-45.24 108,-68 z"
       id="path116" />
    <path
       class="st36"
       d="m 745.51162,471.53131 h -13.49 c -21.29,1.95 -34.63,27.67 -39.51,46 0.56,-2.35 -2.84,-5.17 -4.35,-6.65 -7.24,-7.08 -14.73,-14.07 -21.6,-20.87 -17.1,-16.93 -33.94,-34.16 -51.55,-50.55 l -1.5,-3.93 c 24.3,-23.24 72.84,-7.37 97.92,7.58 14.75,8.79 22.05,17.34 34.08,28.42 z"
       id="path117" />
    <path
       class="st13"
       d="m 861.51162,469.53131 c 0.99,2.36 1.82,5.86 2.04,8.46 l -0.04,76.55 h -78.01 c -0.51,-5.45 -0.62,-10.94 -0.33,-16.46 23.86,-24.08 47.61,-48.08 71.27,-71.98 l 2.06,-0.57 c 1.82,1.91 1.7,0.89 3,4 z"
       id="path118" />
    <path
       class="st33"
       d="m 780.51162,518.53131 c 0.26,2.52 0.92,4.86 2,7 2.73,0.35 2.46,0.92 0,2 l -0.99,2.48 -3,-7.48 c -1.36,3.52 1.74,3.64 2.06,5.43 0.15,0.84 0.53,3.89 -1.06,3.56 l -0.97,-2.65 c -3.64,0.69 -1.36,-6.58 -2.05,-7.34 -4.99,-0.13 -3.24,2.61 -4.06,4.2 -1.86,3.6 -0.97,1.93 -1.91,6.11 -0.23,1.05 -2.45,0.96 -2.93,2.32 -0.88,2.53 1.37,5.71 0.88,8.37 l -1.99,-3 c -1.42,-23.31 -28.85,-36.28 -48,-23 7.26,-16.8 23.18,-27.66 36,-40 0.33,0.04 0.67,-0.03 1,0 2.82,-0.51 7.74,4.14 9.82,6.44 8.44,9.33 13.72,21.36 16.81,33.48 l -1.63,2.07 z"
       id="path119" />
    <path
       class="st29"
       d="m 732.51162,596.53131 c 0.02,0.39 -1.43,1.72 -1,1.99 l 6,0.02 c -1.96,2.47 0.82,1.75 1.03,2.64 0.76,3.31 -3.94,7.44 -3.02,8.35 l 4.99,-0.99 c -0.7,2.41 -5.07,1.86 -6.99,2 l 2.99,1.98 -5.99,0.02 4.99,0.99 c -0.23,0.04 -0.77,0.81 -1.59,0.92 -15.01,1.96 -26.63,-2.69 -40.4,-7.94 l 1.98,-3.5 27.01,-21.49 c 2.14,3.47 9.77,11.12 10,15 z"
       id="path120" />
    <path
       class="st71"
       d="m 735.30162,526.74131 c 18.37,-1.42 21.93,25.99 4.65,28.72 -22.74,3.59 -23.79,-27.24 -4.65,-28.72 z"
       id="path121" />
    <path
       class="st54"
       d="m 695.51162,592.53131 c -2.33,1.67 -4.38,3.6 -7,5 l -5,-2.99 4.99,0.99 0.02,-4.01 z"
       id="path122" />
    <path
       class="st31"
       d="m 858.51162,465.53131 c 0.02,1.98 -1.35,2.77 -2.48,4.02 -21.73,23.93 -47.39,45.76 -69.57,69.43 -2.23,3.88 -0.34,11 -0.95,15.55 -1.14,-9.39 -1.16,-17.34 -3,-27 -0.12,-0.62 0.12,-1.39 0,-2 -1.06,-2.05 -1.73,-4.38 -2,-7 -1.73,-9.93 -8.5,-24.77 -15.02,-32.48 -3.13,-3.71 -7.2,-5.71 -9.98,-9.52 14.73,-8.89 30.71,-17.36 47.79,-20.71 16.75,-3.28 42.58,-3.51 55.21,9.71 z"
       id="path129" />
    <path
       class="st134"
       d="m 666.33162,362.80131 c 38.25,-2.5 42.63,57.68 1.68,58.16 -37.03,0.43 -38.69,-55.74 -1.68,-58.16 z"
       id="path155" />
    <path
       class="st7"
       d="m 828.17162,404.87131 c 20.98,19.42 -2.97,56.04 -29.96,41.46 -35.06,-18.94 1.88,-67.45 29.96,-41.46 z"
       id="path156" />
    <path
       class="st143"
       d="m 743.29162,396.76131 c 34.01,-3.52 38.92,48.83 4.69,50.76 -33.56,1.89 -36.96,-47.43 -4.69,-50.76 z"
       id="path157" />
    <path
       class="st82"
       d="m 782.51162,525.53131 c -3.16,-1.03 -1.6,-4.69 -2,-7 1.63,2.06 1.52,4.6 2,7 z"
       id="path158" />
  </g>
</svg>
